<svg width="24" height="24" viewBox="0 0 24 24" fill="none" xmlns="http://www.w3.org/2000/svg">
<path d="M13.7501 12.0001L20.9501 4.8501C21.0501 4.7501 21.0501 4.6001 20.9501 4.5001L19.5001 3.0501C19.4001 2.9501 19.2501 2.9501 19.1501 3.0501L12.0001 10.2501L4.8501 3.0501C4.7501 2.9501 4.6001 2.9501 4.5001 3.0501L3.0501 4.5001C2.9501 4.6001 2.9501 4.7501 3.0501 4.8501L10.2501 12.0001L3.0501 19.1501C2.9501 19.2501 2.9501 19.4001 3.0501 19.5001L4.5001 20.9501C4.6001 21.0501 4.7501 21.0501 4.8501 20.9501L12.0001 13.7501L19.1501 20.9001C19.2501 21.0001 19.4001 21.0001 19.5001 20.9001L20.9001 19.5001C21.0001 19.4001 21.0001 19.2501 20.9001 19.1501L13.7501 12.0001Z" fill="black"/>
</svg>
